<?xml version="1.0" encoding="UTF-8" standalone="no"?>
<!DOCTYPE svg PUBLIC "-//W3C//DTD SVG 1.1//EN"
 "http://www.w3.org/Graphics/SVG/1.1/DTD/svg11.dtd">
<!-- Generated by graphviz version 10.0.1 (20240210.2158)
 -->
<!-- Title: classes Pages: 1 -->
<svg width="697pt" height="293pt"
 viewBox="0.00 0.00 697.38 293.00" xmlns="http://www.w3.org/2000/svg" xmlns:xlink="http://www.w3.org/1999/xlink">
<g id="graph0" class="graph" transform="scale(1 1) rotate(0) translate(4 289)">
<title>classes</title>
<polygon fill="white" stroke="none" points="-4,4 -4,-289 693.38,-289 693.38,4 -4,4"/>
<!-- llms.llms.ChatAssistant -->
<g id="node1" class="node">
<title>llms.llms.ChatAssistant</title>
<polygon fill="none" stroke="black" points="0,-210 0,-284.5 175,-284.5 175,-210 0,-210"/>
<text text-anchor="start" x="50" y="-267.2" font-family="Times,serif" font-size="14.00">ChatAssistant</text>
<polyline fill="none" stroke="black" points="0,-260 175,-260"/>
<polyline fill="none" stroke="black" points="0,-260 175,-260"/>
<text text-anchor="start" x="8" y="-243.7" font-family="Times,serif" font-style="italic" font-size="14.00">get_completion</text>
<text text-anchor="start" x="91.25" y="-243.7" font-family="Times,serif" font-size="14.00">(raw_prompt)</text>
<text text-anchor="start" x="8" y="-229.7" font-family="Times,serif" font-style="italic" font-size="14.00">get_message</text>
<text text-anchor="start" x="77" y="-229.7" font-family="Times,serif" font-size="14.00">(response)</text>
<text text-anchor="start" x="8" y="-215.7" font-family="Times,serif" font-style="italic" font-size="14.00">log_response</text>
<text text-anchor="start" x="80" y="-215.7" font-family="Times,serif" font-size="14.00">(response)</text>
</g>
<!-- llms.prompts.ClassifyPromptCrafter -->
<g id="node2" class="node">
<title>llms.prompts.ClassifyPromptCrafter</title>
<polygon fill="none" stroke="black" points="177,-62.25 177,-111.25 316,-111.25 316,-62.25 177,-62.25"/>
<text text-anchor="start" x="185" y="-93.95" font-family="Times,serif" font-size="14.00">ClassifyPromptCrafter</text>
<polyline fill="none" stroke="black" points="177,-86.75 316,-86.75"/>
<polyline fill="none" stroke="black" points="177,-86.75 316,-86.75"/>
<text text-anchor="start" x="195.12" y="-69.45" font-family="Times,serif" font-size="14.00">craft_prompt(data)</text>
</g>
<!-- llms.prompts.PromptCrafter -->
<g id="node6" class="node">
<title>llms.prompts.PromptCrafter</title>
<polygon fill="none" stroke="black" points="280.12,-210.5 280.12,-284 398.88,-284 398.88,-210.5 280.12,-210.5"/>
<text text-anchor="start" x="300.12" y="-266.7" font-family="Times,serif" font-size="14.00">PromptCrafter</text>
<polyline fill="none" stroke="black" points="280.12,-259.5 398.88,-259.5"/>
<text text-anchor="start" x="315.88" y="-242.2" font-family="Times,serif" font-size="14.00">template</text>
<polyline fill="none" stroke="black" points="280.12,-235 398.88,-235"/>
<text text-anchor="start" x="288.12" y="-218.7" font-family="Times,serif" font-style="italic" font-size="14.00">craft_prompt</text>
<text text-anchor="start" x="359.38" y="-218.7" font-family="Times,serif" font-size="14.00">(data)</text>
</g>
<!-- llms.prompts.ClassifyPromptCrafter&#45;&gt;llms.prompts.PromptCrafter -->
<g id="edge3" class="edge">
<title>llms.prompts.ClassifyPromptCrafter&#45;&gt;llms.prompts.PromptCrafter</title>
<path fill="none" stroke="black" d="M260.42,-111.48C274.22,-134.99 295.7,-171.6 312.79,-200.73"/>
<polygon fill="none" stroke="black" points="309.56,-202.13 317.64,-208.99 315.59,-198.59 309.56,-202.13"/>
</g>
<!-- llms.datastores.Datastore -->
<g id="node3" class="node">
<title>llms.datastores.Datastore</title>
<polygon fill="none" stroke="black" points="537.62,-222.75 537.62,-271.75 689.38,-271.75 689.38,-222.75 537.62,-222.75"/>
<text text-anchor="start" x="587.62" y="-254.45" font-family="Times,serif" font-size="14.00">Datastore</text>
<polyline fill="none" stroke="black" points="537.62,-247.25 689.38,-247.25"/>
<polyline fill="none" stroke="black" points="537.62,-247.25 689.38,-247.25"/>
<text text-anchor="start" x="545.62" y="-230.95" font-family="Times,serif" font-style="italic" font-size="14.00">save</text>
<text text-anchor="start" x="569.62" y="-230.95" font-family="Times,serif" font-size="14.00">(response, filename)</text>
</g>
<!-- llms.datastores.LogFiles -->
<g id="node4" class="node">
<title>llms.datastores.LogFiles</title>
<polygon fill="none" stroke="black" points="537.62,-50 537.62,-123.5 689.38,-123.5 689.38,-50 537.62,-50"/>
<text text-anchor="start" x="589.5" y="-106.2" font-family="Times,serif" font-size="14.00">LogFiles</text>
<polyline fill="none" stroke="black" points="537.62,-99 689.38,-99"/>
<text text-anchor="start" x="589.88" y="-81.7" font-family="Times,serif" font-size="14.00">log_path</text>
<polyline fill="none" stroke="black" points="537.62,-74.5 689.38,-74.5"/>
<text text-anchor="start" x="545.62" y="-57.2" font-family="Times,serif" font-size="14.00">save(response, filename)</text>
</g>
<!-- llms.datastores.LogFiles&#45;&gt;llms.datastores.Datastore -->
<g id="edge1" class="edge">
<title>llms.datastores.LogFiles&#45;&gt;llms.datastores.Datastore</title>
<path fill="none" stroke="black" d="M613.5,-123.72C613.5,-150.01 613.5,-185.48 613.5,-211.49"/>
<polygon fill="none" stroke="black" points="610,-211.19 613.5,-221.19 617,-211.19 610,-211.19"/>
</g>
<!-- llms.openai_gpt.OpenAIAssistant -->
<g id="node5" class="node">
<title>llms.openai_gpt.OpenAIAssistant</title>
<polygon fill="none" stroke="black" points="15.75,-0.5 15.75,-173 159.25,-173 159.25,-0.5 15.75,-0.5"/>
<text text-anchor="start" x="41" y="-155.7" font-family="Times,serif" font-size="14.00">OpenAIAssistant</text>
<polyline fill="none" stroke="black" points="15.75,-148.5 159.25,-148.5"/>
<text text-anchor="start" x="26.38" y="-131.2" font-family="Times,serif" font-size="14.00">client</text>
<text text-anchor="start" x="26.38" y="-114.7" font-family="Times,serif" font-size="14.00">datastore</text>
<text text-anchor="start" x="26.38" y="-98.2" font-family="Times,serif" font-size="14.00">model</text>
<text text-anchor="start" x="26.38" y="-81.7" font-family="Times,serif" font-size="14.00">prompt_crafter</text>
<text text-anchor="start" x="26.38" y="-65.2" font-family="Times,serif" font-size="14.00">response_format : dict</text>
<polyline fill="none" stroke="black" points="15.75,-58 159.25,-58"/>
<text text-anchor="start" x="23.75" y="-40.7" font-family="Times,serif" font-size="14.00">get_completion(data)</text>
<text text-anchor="start" x="23.75" y="-24.2" font-family="Times,serif" font-size="14.00">get_message(response)</text>
<text text-anchor="start" x="23.75" y="-7.7" font-family="Times,serif" font-size="14.00">log_response(response)</text>
</g>
<!-- llms.openai_gpt.OpenAIAssistant&#45;&gt;llms.llms.ChatAssistant -->
<g id="edge2" class="edge">
<title>llms.openai_gpt.OpenAIAssistant&#45;&gt;llms.llms.ChatAssistant</title>
<path fill="none" stroke="black" d="M87.5,-173.49C87.5,-181.92 87.5,-190.25 87.5,-198.1"/>
<polygon fill="none" stroke="black" points="84,-198.07 87.5,-208.07 91,-198.07 84,-198.07"/>
</g>
<!-- llms.prompts.QuestionAnswerPromptCrafter -->
<g id="node7" class="node">
<title>llms.prompts.QuestionAnswerPromptCrafter</title>
<polygon fill="none" stroke="black" points="333.75,-62.25 333.75,-111.25 519.25,-111.25 519.25,-62.25 333.75,-62.25"/>
<text text-anchor="start" x="341.75" y="-93.95" font-family="Times,serif" font-size="14.00">QuestionAnswerPromptCrafter</text>
<polyline fill="none" stroke="black" points="333.75,-86.75 519.25,-86.75"/>
<polyline fill="none" stroke="black" points="333.75,-86.75 519.25,-86.75"/>
<text text-anchor="start" x="372.5" y="-69.45" font-family="Times,serif" font-size="14.00">craft_prompt(sdata)</text>
</g>
<!-- llms.prompts.QuestionAnswerPromptCrafter&#45;&gt;llms.prompts.PromptCrafter -->
<g id="edge4" class="edge">
<title>llms.prompts.QuestionAnswerPromptCrafter&#45;&gt;llms.prompts.PromptCrafter</title>
<path fill="none" stroke="black" d="M413.48,-111.48C400.63,-134.89 380.65,-171.28 364.69,-200.35"/>
<polygon fill="none" stroke="black" points="361.71,-198.52 359.96,-208.97 367.84,-201.89 361.71,-198.52"/>
</g>
</g>
</svg>
