<?xml version="1.0" encoding="UTF-8" standalone="no"?>
<!DOCTYPE svg PUBLIC "-//W3C//DTD SVG 1.1//EN"
 "http://www.w3.org/Graphics/SVG/1.1/DTD/svg11.dtd">
<!-- Generated by graphviz version 10.0.1 (20240210.2158)
 -->
<!-- Title: packages Pages: 1 -->
<svg width="284pt" height="116pt"
 viewBox="0.00 0.00 284.38 116.00" xmlns="http://www.w3.org/2000/svg" xmlns:xlink="http://www.w3.org/1999/xlink">
<g id="graph0" class="graph" transform="scale(1 1) rotate(0) translate(4 112)">
<title>packages</title>
<polygon fill="white" stroke="none" points="-4,4 -4,-112 280.38,-112 280.38,4 -4,4"/>
<!-- llms -->
<g id="node1" class="node">
<title>llms</title>
<polygon fill="none" stroke="black" points="54,-108 0,-108 0,-72 54,-72 54,-108"/>
<text text-anchor="middle" x="27" y="-84.95" font-family="Times,serif" font-size="14.00">llms</text>
</g>
<!-- llms.datastores -->
<g id="node2" class="node">
<title>llms.datastores</title>
<polygon fill="none" stroke="black" points="169.88,-108 72.12,-108 72.12,-72 169.88,-72 169.88,-108"/>
<text text-anchor="middle" x="121" y="-84.95" font-family="Times,serif" font-size="14.00">llms.datastores</text>
</g>
<!-- llms.llms -->
<g id="node3" class="node">
<title>llms.llms</title>
<polygon fill="none" stroke="black" points="258.88,-36 191.12,-36 191.12,0 258.88,0 258.88,-36"/>
<text text-anchor="middle" x="225" y="-12.95" font-family="Times,serif" font-size="14.00">llms.llms</text>
</g>
<!-- llms.openai_gpt -->
<g id="node4" class="node">
<title>llms.openai_gpt</title>
<polygon fill="none" stroke="black" points="172.88,-36 69.12,-36 69.12,0 172.88,0 172.88,-36"/>
<text text-anchor="middle" x="121" y="-12.95" font-family="Times,serif" font-size="14.00">llms.openai_gpt</text>
</g>
<!-- llms.openai_gpt&#45;&gt;llms -->
<g id="edge1" class="edge">
<title>llms.openai_gpt&#45;&gt;llms</title>
<path fill="none" stroke="black" d="M97.76,-36.3C86.13,-44.97 71.85,-55.6 59.18,-65.04"/>
<polygon fill="black" stroke="black" points="51.27,-70.93 56.6,-61.34 54.3,-68.67 59.29,-64.95 59.29,-64.95 59.29,-64.95 54.3,-68.67 61.98,-68.56 51.27,-70.93"/>
</g>
<!-- llms.openai_gpt&#45;&gt;llms.datastores -->
<g id="edge2" class="edge">
<title>llms.openai_gpt&#45;&gt;llms.datastores</title>
<path fill="none" stroke="black" d="M121,-36.3C121,-43.68 121,-52.48 121,-60.75"/>
<polygon fill="black" stroke="black" points="121,-70.68 116.5,-60.68 121,-66.9 121,-60.68 121,-60.68 121,-60.68 121,-66.9 125.5,-60.68 121,-70.68"/>
</g>
<!-- llms.prompts -->
<g id="node5" class="node">
<title>llms.prompts</title>
<polygon fill="none" stroke="black" points="276.38,-108 187.62,-108 187.62,-72 276.38,-72 276.38,-108"/>
<text text-anchor="middle" x="232" y="-84.95" font-family="Times,serif" font-size="14.00">llms.prompts</text>
</g>
<!-- llms.openai_gpt&#45;&gt;llms.prompts -->
<g id="edge3" class="edge">
<title>llms.openai_gpt&#45;&gt;llms.prompts</title>
<path fill="none" stroke="black" d="M148.72,-36.48C162.87,-45.4 180.26,-56.37 195.48,-65.97"/>
<polygon fill="black" stroke="black" points="203.6,-71.09 192.74,-69.56 200.4,-69.07 195.14,-65.76 195.14,-65.76 195.14,-65.76 200.4,-69.07 197.54,-61.95 203.6,-71.09"/>
</g>
</g>
</svg>
